<svg width="699" height="200" viewBox="0 0 699 200" fill="none" xmlns="http://www.w3.org/2000/svg">
<path d="M499 200C609.457 200 699 155.228 699 100C699 44.7715 609.457 0 499 0H199V0.00122365C89.0031 0.27047 0 44.9383 0 100C0 155.062 89.0031 199.73 199 199.999V200H499Z" fill="#690D2D"/>
<path d="M263.36 83.44C264.928 83.44 266.352 83.68 267.632 84.16C268.912 84.64 270 85.328 270.896 86.224C271.824 87.12 272.528 88.192 273.008 89.44C273.52 90.656 273.776 92.016 273.776 93.52C273.776 95.92 273.152 97.968 271.904 99.664C270.688 101.328 269.024 102.48 266.912 103.12L274.256 118H269.168L262.448 103.6H256.64V118H252.32V83.44H263.36ZM256.64 99.76H263.36C265.184 99.76 266.624 99.2 267.68 98.08C268.768 96.928 269.312 95.408 269.312 93.52C269.312 91.632 268.768 90.128 267.68 89.008C266.592 87.856 265.152 87.28 263.36 87.28H256.64V99.76ZM291.181 118.48C287.885 118.48 285.293 117.584 283.405 115.792C281.549 114 280.621 111.536 280.621 108.4V101.2C280.621 98.064 281.549 95.6 283.405 93.808C285.293 92.016 287.885 91.12 291.181 91.12C294.477 91.12 297.053 92.016 298.909 93.808C300.797 95.6 301.741 98.064 301.741 101.2V106.048H284.941V108.16C284.941 110.176 285.485 111.76 286.573 112.912C287.693 114.064 289.229 114.64 291.181 114.64C292.621 114.64 293.869 114.416 294.925 113.968C295.981 113.52 296.765 112.864 297.277 112H301.597C301.053 114.016 299.837 115.6 297.949 116.752C296.093 117.904 293.837 118.48 291.181 118.48ZM297.421 102.448V101.2C297.421 99.216 296.877 97.68 295.789 96.592C294.701 95.504 293.165 94.96 291.181 94.96C289.197 94.96 287.661 95.504 286.573 96.592C285.485 97.68 284.941 99.216 284.941 101.2V102.448H297.421ZM314.347 82.96V102.64H319.531L327.595 91.6H332.539L323.179 104.368L332.682 118H327.643L319.579 106.48H314.347V118H310.027V82.96H314.347ZM337.224 91.6H344.904V83.44H349.224V91.6H359.544V95.536H349.224V111.184C349.224 112.08 349.496 112.784 350.04 113.296C350.616 113.808 351.384 114.064 352.344 114.064H359.064V118H352.344C350.072 118 348.264 117.376 346.92 116.128C345.576 114.88 344.904 113.232 344.904 111.184V95.536H337.224V91.6ZM365.525 91.6H370.085L376.517 110.272C376.773 111.008 376.965 111.664 377.093 112.24C377.221 112.784 377.317 113.248 377.381 113.632C377.445 114.112 377.477 114.528 377.477 114.88H377.909C377.877 114.528 377.893 114.112 377.957 113.632C378.021 113.248 378.101 112.784 378.197 112.24C378.293 111.664 378.469 111.008 378.725 110.272L384.821 91.6H389.525L380.069 118H375.173L365.525 91.6ZM394.93 110.32C394.93 109.072 395.138 107.952 395.554 106.96C396.002 105.936 396.626 105.072 397.426 104.368C398.258 103.664 399.25 103.12 400.402 102.736C401.554 102.352 402.85 102.16 404.29 102.16H412.162V100C412.162 98.368 411.618 97.104 410.53 96.208C409.474 95.28 407.938 94.816 405.922 94.816C404.45 94.816 403.186 95.088 402.13 95.632C401.106 96.176 400.418 96.928 400.066 97.888H395.746C396.194 95.808 397.33 94.16 399.154 92.944C401.01 91.728 403.298 91.12 406.018 91.12C409.282 91.12 411.842 91.888 413.698 93.424C415.554 94.928 416.482 97.04 416.482 99.76V118H412.546V112.96H412.162C411.746 114.656 410.77 116 409.234 116.992C407.698 117.984 405.826 118.48 403.618 118.48C400.962 118.48 398.85 117.744 397.282 116.272C395.714 114.8 394.93 112.816 394.93 110.32ZM404.578 114.928C405.666 114.928 406.674 114.784 407.602 114.496C408.53 114.208 409.33 113.808 410.002 113.296C410.674 112.752 411.202 112.128 411.586 111.424C411.97 110.72 412.162 109.952 412.162 109.12V105.52H404.386C402.786 105.52 401.522 105.936 400.594 106.768C399.698 107.6 399.25 108.752 399.25 110.224C399.25 111.696 399.714 112.848 400.642 113.68C401.57 114.512 402.882 114.928 404.578 114.928ZM435.664 82.96V110.32C435.664 111.504 435.984 112.432 436.624 113.104C437.264 113.744 438.144 114.064 439.264 114.064H447.088V118H439.264C436.8 118 434.864 117.328 433.456 115.984C432.048 114.608 431.344 112.72 431.344 110.32V86.896H422.608V82.96H435.664Z" fill="#E5E5E5"/>
</svg>
