<svg width="500" height="200" viewBox="0 0 500 200" fill="none" xmlns="http://www.w3.org/2000/svg">
<path d="M100 0C44.7715 0 0 44.7715 0 100C0 155.228 44.7715 200 100 200H400C455.228 200 500 155.228 500 100C500 44.7715 455.228 0 400 0H100Z" fill="#690D2D"/>
<path d="M135.36 83.44C136.928 83.44 138.352 83.68 139.632 84.16C140.912 84.64 142 85.328 142.896 86.224C143.824 87.12 144.528 88.192 145.008 89.44C145.52 90.656 145.776 92.016 145.776 93.52C145.776 95.92 145.152 97.968 143.904 99.664C142.688 101.328 141.024 102.48 138.912 103.12L146.256 118H141.168L134.448 103.6H128.64V118H124.32V83.44H135.36ZM128.64 99.76H135.36C137.184 99.76 138.624 99.2 139.68 98.08C140.768 96.928 141.312 95.408 141.312 93.52C141.312 91.632 140.768 90.128 139.68 89.008C138.592 87.856 137.152 87.28 135.36 87.28H128.64V99.76ZM163.181 118.48C159.885 118.48 157.293 117.584 155.405 115.792C153.549 114 152.621 111.536 152.621 108.4V101.2C152.621 98.064 153.549 95.6 155.405 93.808C157.293 92.016 159.885 91.12 163.181 91.12C166.477 91.12 169.053 92.016 170.909 93.808C172.797 95.6 173.741 98.064 173.741 101.2V106.048H156.941V108.16C156.941 110.176 157.485 111.76 158.573 112.912C159.693 114.064 161.229 114.64 163.181 114.64C164.621 114.64 165.869 114.416 166.925 113.968C167.981 113.52 168.765 112.864 169.277 112H173.597C173.053 114.016 171.837 115.6 169.949 116.752C168.093 117.904 165.837 118.48 163.181 118.48ZM169.421 102.448V101.2C169.421 99.216 168.877 97.68 167.789 96.592C166.701 95.504 165.165 94.96 163.181 94.96C161.197 94.96 159.661 95.504 158.573 96.592C157.485 97.68 156.941 99.216 156.941 101.2V102.448H169.421ZM186.347 82.96V102.64H191.531L199.595 91.6H204.539L195.179 104.368L204.682 118H199.643L191.579 106.48H186.347V118H182.027V82.96H186.347ZM209.224 91.6H216.904V83.44H221.224V91.6H231.544V95.536H221.224V111.184C221.224 112.08 221.496 112.784 222.04 113.296C222.616 113.808 223.384 114.064 224.344 114.064H231.064V118H224.344C222.072 118 220.264 117.376 218.92 116.128C217.576 114.88 216.904 113.232 216.904 111.184V95.536H209.224V91.6ZM239.685 118V114.064H249.285V95.536H240.885V91.6H253.605V114.064H261.525V118H239.685ZM250.245 81.28H251.205C252.133 81.28 252.885 81.552 253.461 82.096C254.037 82.64 254.325 83.344 254.325 84.208C254.325 85.072 254.037 85.76 253.461 86.272C252.885 86.784 252.133 87.04 251.205 87.04H250.245C249.317 87.04 248.565 86.8 247.989 86.32C247.413 85.808 247.125 85.104 247.125 84.208C247.125 83.344 247.413 82.64 247.989 82.096C248.565 81.552 249.317 81.28 250.245 81.28ZM269.282 91.6H273.362V96.16H273.746C274.162 94.592 275.026 93.36 276.338 92.464C277.65 91.568 279.266 91.12 281.186 91.12C283.97 91.12 286.146 92 287.714 93.76C289.314 95.488 290.114 97.872 290.114 100.912V102.4H285.794V101.44C285.794 99.36 285.266 97.76 284.21 96.64C283.186 95.488 281.714 94.912 279.794 94.912C277.906 94.912 276.402 95.504 275.282 96.688C274.162 97.84 273.602 99.424 273.602 101.44V118H269.282V91.6ZM301.472 82.96V102.64H306.656L314.72 91.6H319.664L310.304 104.368L319.807 118H314.768L306.704 106.48H301.472V118H297.152V82.96H301.472ZM335.869 118.48C332.573 118.48 329.981 117.584 328.093 115.792C326.237 114 325.309 111.536 325.309 108.4V101.2C325.309 98.064 326.237 95.6 328.093 93.808C329.981 92.016 332.573 91.12 335.869 91.12C339.165 91.12 341.741 92.016 343.597 93.808C345.485 95.6 346.429 98.064 346.429 101.2V106.048H329.629V108.16C329.629 110.176 330.173 111.76 331.261 112.912C332.381 114.064 333.917 114.64 335.869 114.64C337.309 114.64 338.557 114.416 339.613 113.968C340.669 113.52 341.453 112.864 341.965 112H346.285C345.741 114.016 344.525 115.6 342.637 116.752C340.781 117.904 338.525 118.48 335.869 118.48ZM342.109 102.448V101.2C342.109 99.216 341.565 97.68 340.477 96.592C339.389 95.504 337.853 94.96 335.869 94.96C333.885 94.96 332.349 95.504 331.261 96.592C330.173 97.68 329.629 99.216 329.629 101.2V102.448H342.109ZM365.226 82.96V110.32C365.226 111.504 365.546 112.432 366.186 113.104C366.826 113.744 367.706 114.064 368.826 114.064H376.65V118H368.826C366.362 118 364.426 117.328 363.018 115.984C361.61 114.608 360.906 112.72 360.906 110.32V86.896H352.17V82.96H365.226Z" fill="#E5E5E5"/>
</svg>
